<svg viewBox="0 0 320 240" xmlns="http://www.w3.org/2000/svg" aria-label="Interactive book icon (transparent bg)">
  <defs>
    <!-- Soft inner shadow for pages -->
    <filter id="inner" x="-20%" y="-20%" width="140%" height="160%">
      <feOffset dy="1"/>
      <feGaussianBlur stdDeviation="1.5" result="b"/>
      <feComposite in="SourceGraphic" in2="b" operator="arithmetic" k2="1" k3="-1"/>
      <feColorMatrix values="0 0 0 0 0.06  0 0 0 0 0.14  0 0 0 0 0.22  0 0 0 .65 0"/>
      <feComposite in2="SourceGraphic" operator="in"/>
    </filter>

    <!-- Star symbol for the flip reveal -->
    <symbol id="star16" viewBox="0 0 16 16">
      <rect x="7" y="0" width="2" height="16" rx="1"/>
      <rect x="0" y="7" width="16" height="2" rx="1"/>
    </symbol>

    <style>
      svg {
        --cover: #1b3a5a;
        --back-cover: #152a42;
        --spine: #284d76;
        --page: #f7f5ef;
        --page-edge: #e6e2d6;
        --page-turn: #214764;
        --reveal: #d9e6f7;
        --ink: #0f2740;
        --accent: #22d3ee;
        --dot: #33e17a;
        --ribbon: #ff5a7a;
      }
      .ns { vector-effect: non-scaling-stroke; }
      .book { transition: transform .28s ease; }
      svg:hover .book { transform: translateY(-2px) scale(1.03); }

      .page-turn {
        transform-origin: 206px 56px;
        transition: transform .6s cubic-bezier(.18,.72,.24,1), filter .6s ease;
        will-change: transform;
      }
      svg:hover .page-turn {
        transform: rotate(-12deg) translate(0,6px);
        filter: drop-shadow(0 2px 4px rgba(15,39,64,.35));
      }

      .icon-a { opacity: 1; transition: opacity .25s ease; }
      svg:hover .icon-a { opacity: 0; }
      .icon-b { opacity: 0; transform: scale(.9) rotate(-8deg); transform-origin: 240px 98px;
                transition: opacity .35s ease .12s, transform .35s ease .12s; }
      svg:hover .icon-b { opacity: 1; transform: scale(1) rotate(0); }

      .dot { transform: translateX(0); }
      svg:hover .dot { animation: dot-run 1.4s ease-in-out infinite alternate; }
      @keyframes dot-run {
        from { transform: translateX(0); }
        to   { transform: translateX(132px); }
      }

      @media (prefers-reduced-motion: reduce) {
        .book, .page-turn, .icon-a, .icon-b, .dot { transition: none !important; animation: none !important; }
      }
    </style>
  </defs>

  <!-- Book -->
  <g class="book" stroke-linecap="round" stroke-linejoin="round">
    <!-- Back cover -->
    <rect x="64" y="48" width="192" height="128" rx="12" fill="var(--back-cover)" stroke="var(--ink)" stroke-width="2"/>

    <!-- Main cover -->
    <rect x="70" y="50" width="180" height="116" rx="10" fill="var(--cover)" stroke="var(--ink)" stroke-width="2"/>

    <!-- Spine with ridges -->
    <g>
      <rect x="70" y="50" width="12" height="116" rx="6" fill="var(--spine)" stroke="var(--ink)" stroke-width="2"/>
      <path d="M78 62v88M74 70v72M82 70v72" stroke="#173456" stroke-width="1" opacity=".6"/>
    </g>

    <!-- Pages base (left & right) -->
    <g filter="url(#inner)">
      <path d="M84 64h86c6 0 10 4 10 10v68c0 6-4 10-10 10H84c-6 0-10-4-10-10V74c0-6 4-10 10-10z"
            fill="var(--page)" stroke="var(--ink)" stroke-width="2"/>
      <path d="M214 64h46c6 0 10 4 10 10v68c0 6-4 10-10 10h-86c-6 0-10-4-10-10V74c0-6 4-10 10-10h40z"
            fill="var(--page)" stroke="var(--ink)" stroke-width="2"/>
    </g>

    <!-- Center stitching & gutter -->
    <g>
      <rect x="168" y="64" width="4" height="88" rx="2" fill="#d4d0c6" opacity=".6"/>
      <path d="M170 68v80" stroke="#b9b4a8" stroke-width="1" stroke-dasharray="2 4"/>
      <path d="M164 64h2v88h-2M174 64h2v88h-2" fill="none" stroke="#c7c1b5" stroke-width="1" opacity=".5"/>
    </g>

    <!-- Bookmark ribbon -->
    <g>
      <path d="M154 64h10v36l-5-5-5 5z" fill="var(--ribbon)" stroke="#aa2742" stroke-width="1.5"/>
      <path d="M154 64h10" stroke="#ff98ac" stroke-width="2" opacity=".6"/>
    </g>

    <!-- Bottom page stack -->
    <g>
      <path d="M96 160c18 6 36 9 64 9s46-3 64-9" fill="none" stroke="var(--page-edge)" stroke-width="6" stroke-linecap="round"/>
      <path d="M96 160c18 6 36 9 64 9s46-3 64-9" fill="none" stroke="#cfcabb" stroke-width="2" stroke-linecap="round" opacity=".8"/>
      <path d="M100 162c16 5 34 7 60 7s44-2 60-7" fill="none" stroke="#e5e1d7" stroke-width="1" opacity=".9"/>
      <path d="M104 164c14 4 30 6 56 6s42-2 56-6" fill="none" stroke="#d9d4c8" stroke-width="1" opacity=".8"/>
    </g>

    <!-- Browsing dot -->
    <circle class="dot" cx="94" cy="162" r="5.5" fill="var(--dot)" stroke="#0a2a18" stroke-width="2"/>

    <!-- Left-page content -->
    <g stroke="var(--ink)" stroke-width="2">
      <rect x="94" y="80" width="34" height="26" rx="3" fill="none"/>
      <path d="M96 102l8-10 8 7 6-5 8 8" fill="none"/>
      <path d="M94 116h54M94 124h50M94 132h46" opacity=".95"/>
    </g>

    <!-- Right flipping page -->
    <g class="page-turn">
      <path d="M204 58h56v72c0 0-28-2-56 16V58z" fill="var(--page-turn)" stroke="var(--ink)" stroke-width="2"/>
      <path d="M204 58c20 10 42 16 56 16" fill="none" stroke="var(--reveal)" stroke-width="3" opacity=".6"/>
      <path d="M260 74c-6 0-12 2-16 6" fill="none" stroke="#9fc9ff" stroke-width="1.5" opacity=".7"/>

      <!-- Icon swap: magnifier → star -->
      <g class="icon-a" transform="translate(228 92)">
        <circle cx="0" cy="0" r="12" fill="none" stroke="#a9d9ff" stroke-width="3"/>
        <path d="M8 8l10 10" stroke="#a9d9ff" stroke-width="3"/>
      </g>
      <g class="icon-b" transform="translate(228 92)">
        <use href="#star16" width="18" height="18" x="-9" y="-9" fill="#a9d9ff"/>
      </g>
    </g>
  </g>
</svg>