<svg width="57" height="60" viewBox="0 0 57 60" fill="none" xmlns="http://www.w3.org/2000/svg">
<path fill-rule="evenodd" clip-rule="evenodd" d="M38.529 28.0781C33.8583 28.0781 29.4166 26.6738 26.3401 24.2225C24.138 22.4676 21.2484 21.5012 18.2042 21.5012H0V18.6325H18.2042C21.8952 18.6325 25.4193 19.8207 28.1277 21.9786C30.7056 24.0323 34.4958 25.2087 38.5312 25.2091H38.5693C46.1673 25.2091 53.4065 21.2355 53.4672 17.0326C53.4068 12.871 46.168 8.89704 38.5721 8.89739H38.534C34.495 8.89739 30.7048 10.0741 28.127 12.1282C25.4193 14.2854 21.8952 15.4736 18.2042 15.4736H0V12.6045H18.2042C21.2484 12.6045 24.1376 11.6385 26.3394 9.88431C29.4159 7.43266 33.8583 6.02832 38.5319 6.02832H38.5754C46.8993 6.02832 56.2428 10.5473 56.3356 17.0326C56.2421 23.5588 46.8989 28.0778 38.5729 28.0778C38.565 28.0817 38.5441 28.0781 38.529 28.0781Z" fill="#D8232A"/>
<path fill-rule="evenodd" clip-rule="evenodd" d="M18.2039 40.6816H0V37.8125H18.2039C21.2488 37.8125 24.1376 36.8465 26.339 35.0923C29.426 32.6328 33.8637 31.2363 38.575 31.2363H54.132V34.1054H38.5721H38.534C34.4954 34.1054 30.7052 35.2822 28.1277 37.3362C25.4193 39.4934 21.8956 40.6816 18.2039 40.6816Z" fill="#D8232A"/>
<path fill-rule="evenodd" clip-rule="evenodd" d="M0 27.8945H17.2436V25.0254H0V27.8945Z" fill="#D8232A"/>
<path fill-rule="evenodd" clip-rule="evenodd" d="M0 34.288H17.2436V31.4189H0V34.288Z" fill="#D8232A"/>
<path fill-rule="evenodd" clip-rule="evenodd" d="M0.000244141 2.86907H54.1319V0H0.000244141V2.86907Z" fill="#D8232A"/>
<path fill-rule="evenodd" clip-rule="evenodd" d="M0 59.8388H2.77308V50.2598H0V59.8388Z" fill="black"/>
<path fill-rule="evenodd" clip-rule="evenodd" d="M5.3313 50.2607H8.4258L11.4944 55.6599V50.2607H13.8921V59.8398H11.2399L7.74269 53.8244V59.8398H5.3313V50.2607Z" fill="black"/>
<path fill-rule="evenodd" clip-rule="evenodd" d="M16.4094 50.2607H19.5039L22.5725 55.6599V50.2607H24.9703V59.8398H22.318L18.8208 53.8244V59.8398H16.4094V50.2607Z" fill="black"/>
<path fill-rule="evenodd" clip-rule="evenodd" d="M27.4875 50.2607H30.5821L33.6503 55.6599V50.2607H36.0484V59.8398H33.3958L29.8993 53.8244V59.8398H27.4875V50.2607Z" fill="black"/>
<path fill-rule="evenodd" clip-rule="evenodd" d="M38.5657 50.2607H45.1836V52.3773H41.2988V54.0254H44.3933V55.9813H41.2988V57.7229H45.3982V59.8398H38.5657V50.2607Z" fill="black"/>
<path fill-rule="evenodd" clip-rule="evenodd" d="M46.884 56.7978H49.4968C49.5633 57.4813 49.8718 58.044 51.0108 58.044C51.8006 58.044 52.2429 57.6553 52.2429 57.0926C52.2429 56.503 51.8812 56.3423 50.7289 56.1683C48.023 55.8465 47.112 55.043 47.112 53.1137C47.112 51.3858 48.5318 50.126 50.8227 50.126C53.127 50.126 54.4267 51.0906 54.6007 53.1137H52.0552C51.9617 52.4306 51.5731 52.0822 50.8227 52.0822C50.086 52.0822 49.711 52.4169 49.711 52.8994C49.711 53.4355 50.0059 53.6764 51.1981 53.8371C53.6228 54.1049 54.8685 54.7345 54.8685 56.8111C54.8685 58.5664 53.4754 59.9998 51.0108 59.9998C48.3312 59.9998 46.9646 58.8745 46.884 56.7978Z" fill="black"/>
</svg>
